# xmcd
#
# Track frame offsets: 
#        150
#        11835
#        29850
#        48524
#        61569
#        72208
#        86175
#        99282
#        113277
#        159293
#        224879
#        244537
#        260677
#        290580
#
# Disc length: 4143 seconds
#
# Revision: 0
# Processed by: cddbd v1.5.2PL0 Copyright (c) Steve Scherf et al.
# Submitted via: ExactAudioCopy v0.99pb5
#
DISCID=c5102d0e
DTITLE=Группа Стаса Намина 'Цветы' - Ностальгия по настоящему. Юбилейн
DTITLE=ый концерт с участием гостей [CD 2]
DYEAR=2005
DGENRE=Estrada USSR
TTITLE0=Продавец счастья
TTITLE1=Наполним небо добротой
TTITLE2=Bohemian Rhapsody
TTITLE3=I Want To Break Free
TTITLE4=We Will Rock You
TTITLE5=Because
TTITLE6=Something
TTITLE7=All You Need Is Love
TTITLE8=Блюз (импровизвция)
TTITLE9=Попурри из произведений классического рок-н-ролла
TTITLE10=Африка (ремейк песни "Юрмала")
TTITLE11=Юрмала (запись 1980 года) [бонус]
TTITLE12=Ностальгия по настоящему (запись 1985 года) [бонус]
TTITLE13=Белые льдины (запись 2005 года) [бонус]
EXTD=
EXTT0=
EXTT1=
EXTT2=
EXTT3=
EXTT4=
EXTT5=
EXTT6=
EXTT7=
EXTT8=
EXTT9=
EXTT10=
EXTT11=
EXTT12=
EXTT13=
PLAYORDER=
